<svg xmlns="http://www.w3.org/2000/svg" width="454" height="90" fill="none"><path fill="color(display-p3 .0941 .2235 .149)" d="M446.879 21.602c0-1.563-.238-2.762-.598-3.723 0-.598.36-1.918 1.199-3.961.122-.238.239-.36.36-.36s.238.122.359.481c.242.48.723 1.922 1.68 4.32.961 2.52 1.562 4.082 1.68 4.68.121.36.121.723.121.961 0 .719-.602.238-1.918-1.2-.121-.241-.242-.12-.242.24 0 .12.359 4.92.96 14.401.719 9.477 1.079 14.758 1.079 15.957 0 3.723-.598 6.84-1.68 9.602-.238.602-.359.96-.598 1.2-.121.48-.242.48-.359.241 0-.359 0-.84.117-1.8.121-1.2.242-2.641.242-4.32 0-1.56-.48-7.68-1.203-18.602-.719-10.801-1.199-16.918-1.199-18.117zm-3.957 30.358a41.133 41.133 0 0 0-1.563-2.878c-.238-.363-.48-.363-.597 0a7.865 7.865 0 0 0-.84 3.598c0 .12 0 .36.117.48 1.32 2.16 1.922 3.48 1.922 4.078-.481 1.203-1.68 1.922-3.359 1.801-1.204.121-2.043-.121-2.641-.48-.961-.598-1.68-2.04-2.16-4.32-.121-.72-.242-5.157-.481-13.2-.242-8.64-.48-14.398-.84-17.277-.48-4.68-1.199-7.922-2.16-9.844-.242-.36-.359-.477-.48-.477 0 0-.121.118-.36.477-.601 1.563-.839 2.762-.839 3.48.839 2.883 1.437 5.883 1.8 9.122.239 1.921.481 7.32.719 16.082.238 8.16.481 13.078.84 14.636.48 2.762 1.32 4.563 2.641 5.524.961.718 2.281 1.078 3.961 1.078 1.558 0 2.878-.961 3.839-2.758.719-1.203 1.079-2.883 1.079-5.164 0-1.559-.239-2.879-.598-3.957zm-27.363 19.321c-3 1.559-5.879 2.278-8.637 2.278-2.399 0-4.473-.352-6.227-1.043 3.184-1.801 5.993-3.872 8.383-6.157.961-.96 1.563-2.277 1.922-4.199.359-1.68.602-4.078.602-7.32.238.12.597.242 1.199.242 4.199 0 6.961.238 8.398.719 2.641.96 3.961 2.758 3.961 5.281 0 1.438-.961 3.117-2.762 5.156-1.918 1.922-4.199 3.723-6.839 5.043zm6.121-20.16c-1.321-.48-4.2-.602-8.879-.723-1.082 0-1.922-.359-2.403-.84-.238-.238-.597-.84-.957-1.68-.242-.48-.48-.718-.601-.718s-.238.121-.36.48c-.601 2.04-.839 3.122-.839 3.36s.121.719.359 1.2c1.441 3 2.16 5.76 2.16 8.402-.359.84-1.68 2.16-3.84 3.84a38.792 38.792 0 0 1-8.64 5.039c-.285.128-.567.242-.852.363-.074-.082-.156-.156-.226-.242-1.801-2.282-2.641-5.282-2.641-9 0-3.243 1.32-6.602 4.078-10.204 2.762-3.48 5.883-6.117 9.359-7.918 2.282-1.082 4.68-1.921 7.442-2.761 2.398-.598 4.68-1.2 6.961-1.801.48-.117.719-.36.84-.719l.961-3c.117-.238.117-.48.238-.597 0-.243-.481-.364-1.442-.364-1.199.121-2.519.121-3.957.121-1.32 0-3.839 0-7.679-.12-3.723-.118-6.961-.239-9.602-.239h-.129a30.321 30.321 0 0 0 3.196-2.969c1.199-1.32 2.761-3.718 4.679-7.32 1.442-2.64 2.641-3.961 3.364-3.961.597 0 1.078.36 1.558 1.203.481.957.719 1.918.719 3.117 0 .961.121 1.442.48 1.442.243 0 .36-.36.602-1.2.238-1.203.359-2.402.359-3.601 0-1.8-.359-3.238-.961-4.32-.601-.961-1.199-1.438-1.8-1.438-.84 0-2.04 1.438-3.84 4.2-2.16 3.597-3.84 6-4.918 6.956-1.801 1.801-3.723 3.364-5.52 4.563-.961.598-2.281 1.32-3.844 2.16-.957.426-1.714.773-1.964 1.168h-.02c-.016.05-.031.094-.051.145 0 0-.004.003-.004.007h.004a115.55 115.55 0 0 1-1.269 3.567c-.121.242-.121.48-.121.601 0 .239.601.36 1.679.36 2.161 0 4.563 0 7.2.12 2.64.118 5.281.118 8.043.118-5.282 2.64-9.364 6.242-12.243 10.922-2.757 4.441-4.078 9.242-4.078 14.281 0 3.113.449 5.742 1.336 7.89-2.465.747-4.832 1.11-7.097 1.11-4.2 0-7.321-1.32-9.481-4.082-1.559-1.918-2.277-4.078-2.277-6.48 0-.72.117-1.797.476-3.239.121-.718.364-1.558.481-2.402.121-.477.121-.836 0-.836-.239 0-.36.238-.481.598-.597 1.32-.957 2.879-1.199 4.68-.238 1.199-.238 2.28-.238 3.48 0 1.68.121 3.12.597 4.32 2.161 5.758 6.243 8.64 12.122 8.64 3.003 0 6.207-.722 9.55-2.058 2.321 2.324 5.696 3.496 10.129 3.496 5.039 0 9.723-1.918 13.922-5.879 4.199-3.96 6.359-8.52 6.359-13.68 0-3.597-1.679-6.12-4.8-7.558zm-43.321-12.359c-.238-.602-.48-.844-.597-.844-.121 0-.242.242-.364.602-.597 1.921-.957 3.12-.957 3.242 0 .476.118.957.481 1.32.598 1.078.84 1.797.84 2.398-.481.84-1.684 1.32-3.481 1.2-1.082 0-1.922-.239-2.402-.72-.238-.241-.481-.839-.957-1.8-.242-.48-.363-.719-.602-.719-.121 0-.242.239-.359.598-.602 1.922-.84 3-.84 3.242 0 .36.117.84.359 1.32 1.442 3 2.282 5.758 2.282 8.399-.481.96-1.684 2.281-3.602 3.84-2.398 1.922-5.398 3.96-9.121 6-3 1.558-6.84 3.36-11.398 5.281-6.36 2.758-9.961 4.2-10.68 4.559-1.563.718-2.402 1.199-2.402 1.32h.121c.359 0 1.082 0 2.281-.238 1.199-.121 4.078-.844 8.641-1.922 4.437-1.078 6.718-1.68 6.839-1.68.598 0 2.879-.96 6.719-3.12 4.442-2.4 7.918-4.68 10.32-6.84 1.68-1.438 2.758-3.481 3.239-6 .242-1.2.359-3.481.359-6.962.363.121.723.242 1.203.242 1.321 0 2.399-.718 3.481-2.039 1.078-1.441 1.679-3.601 1.679-6.242 0-1.437-.363-2.879-1.082-4.437z"/><path fill="color(display-p3 .0941 .2235 .149)" d="M359.762 24.914c-.121-.602-.723-2.039-1.684-4.562-.84-2.399-1.437-3.84-1.68-4.438-.117-.242-.238-.36-.359-.36 0 0-.117.118-.238.36-.84 2.04-1.321 3.36-1.321 3.84.481.96.84 2.277.84 3.719 0 1.68.239 7.082.961 16.441.598 9.238.957 14.52.957 15.84 0 2.16-.238 3.36-.718 3.719-1.321 1.199-2.758 1.726-4.2 1.726-.961 0-1.679-.36-2.281-1.199-.359-.602-.598-1.32-.598-2.281 0-.117.118-.36.118-.719.121-.238.121-.48.121-.602 0-.359-.121-.48-.481-.48-.238 0-.48.121-.719.363-2.519 2.399-4.082 3.84-4.679 4.32-1.801 1.2-3.723 1.989-6 1.868v.008c-1.227.02-2.074-.215-2.641-.559-.961-.598-1.68-2.04-2.16-4.316-.121-.723-.238-5.16-.48-13.204-.239-8.636-.481-14.398-.84-17.277-.481-4.68-1.2-7.922-2.16-9.84-.239-.363-.36-.48-.481-.48 0 0-.117.117-.359.48-.602 1.559-.84 2.758-.84 3.48a53.337 53.337 0 0 1 1.801 9.118c.238 1.922.48 7.32.718 16.082.243 8.16.481 13.078.84 14.64.481 2.758 1.321 4.56 2.641 5.52.961.719 2.281 1.078 3.961 1.078 2.16 0 4.199-.84 6.238-2.64.359-.36 1.441-1.438 3-3.239.242-.36.481-.48.723-.48.117 0 .238.12.238.242.117 3.176 1.516 4.727 4.172 4.785v.012c.019 0 .039-.004.058-.004.032 0 .059.004.09.004v-.012c1.75-.062 3.516-1.172 4.801-3.273 1.68-2.52 2.52-6.121 2.52-10.68 0-1.562-.36-6.48-.961-14.64-.602-8.04-.84-12.243-.84-12.36 0-.36 0-.48.121-.242 1.32 1.562 2.039 1.922 2.039 1.203 0-.121-.121-.48-.238-.96zm-38.282-2.473c0-1.562-.242-2.761-.601-3.722 0-.598.359-1.918 1.199-3.957.121-.242.242-.364.363-.364.118 0 .239.122.36.48.238.481.719 1.923 1.679 4.321.961 2.52 1.559 4.082 1.68 4.68.121.36.121.723.121.96 0 .72-.601.243-1.922-1.198-.121-.243-.238-.121-.238.238 0 .121.359 4.922.957 14.402.723 9.48 1.082 14.758 1.082 15.957 0 3.723-.601 6.844-1.68 9.602-.242.601-.839 1.68-.96 1.441 0-.363 0-.84.121-1.8.121-1.2.238-2.641.238-4.32 0-1.56-.481-7.68-1.199-18.602-.719-10.797-1.2-16.918-1.2-18.118zm-3.96.957c-.122-.597-.719-2.039-1.68-4.558-.84-2.399-1.442-3.84-1.68-4.442-.121-.238-.238-.359-.359-.359 0 0-.121.121-.242.36-.84 2.042-1.321 3.363-1.321 3.84.481.96.84 2.28.84 3.722 0 1.68.242 7.078.961 16.437.602 9.243.961 14.52.961 15.84 0 2.16-.238 3.364-.719 3.723-1.32 1.2-2.761 1.68-4.203 1.68-1.199 0-2.039-.121-2.519-.48-1.079-.72-1.797-2.161-2.161-4.321-.957-5.16-1.679-9.121-2.277-12-1.199-6.36-3.242-11.399-6-15-.359-.36-.48-.238-.723.242a28.315 28.315 0 0 0-.359 2.398c-.238 1.079-.238 1.68-.238 1.801 2.398 5.16 3.84 8.88 4.437 11.278.84 3.242 1.203 5.523 1.203 6.96 0 .72 0 1.2-.242 1.442 0 .121-.238.48-.84 1.2-1.8 2.398-4.199 4.679-7.32 6.718-4.078 2.883-7.918 4.203-11.398 4.203-2.403 0-3.719-1.203-3.719-3.844 0-1.68.476-4.199 1.437-7.558.121-.48.243-.84.243-1.078 0-.243 0-.243-.122-.243-.121 0-.359.36-.601 1.082a25.109 25.109 0 0 0-2.039 9.957c0 1.684.238 3.121.961 4.204.84 1.437 2.16 2.039 3.719 2.039 3.121 0 6.601-1.2 10.32-3.602 3.359-2.039 6.121-4.559 8.398-7.32 1.203-1.438 1.922-3.239 2.282-5.52.48 2.762.718 4.68.96 5.64.481 2.642 1.321 4.442 2.641 5.4.957.722 2.277 1.202 3.957 1.202 1.801 0 3.481-1.203 4.801-3.359 1.68-2.523 2.519-6.121 2.519-10.684 0-1.558-.359-6.48-.957-14.636-.601-8.043-.839-12.242-.839-12.364 0-.359 0-.48.117-.238 1.32 1.559 2.043 1.922 2.043 1.2 0-.122-.121-.481-.242-.962z"/><path fill="color(display-p3 .0941 .2235 .149)" d="M290.762 42.602c-2.524-1.442-5.641-2.16-9.242-2.16-2.758 0-9.239.597-19.442 1.796-10.199 1.203-17.277 1.801-21.238 1.68-3.36.121-6.121-.238-8.039-.719-1.68-.48-2.403-1.078-2.403-1.68 0-.238.84-1.32 2.403-2.878 2.16-2.16 4.801-4.32 7.918-6.602a36.058 36.058 0 0 1 6-3.598c2.281-1.082 3.84-1.68 4.679-1.68.723 0 1.321.239 1.68.72.481.48.723.718.844.718.117 0 .359-.36.719-1.199.359-.719.597-1.32.718-1.918.121-.242.121-.48.121-.844 0-1.32-.839-1.918-2.64-1.918-2.399 0-6.121 1.68-11.16 5.282-5.039 3.359-8.52 6.48-10.442 9.359-2.039 2.879-3 5.277-3 7.437 0 1.684 1.082 2.883 3.242 3.48 1.801.481 4.918.724 9.36.724 1.082 0 7.558-.602 19.199-1.801C271.68 45.6 278.52 45 280.559 45c3.363 0 6 .36 7.8 1.082 1.68.719 3 1.918 4.082 3.598.239.36.239.601-.121.601-2.761.239-11.761 1.32-27.121 3.36-13.918 1.8-22.918 2.757-26.758 2.757-8.519 0-13.8-.597-15.961-1.68-2.878-1.437-4.921-3.48-6.242-6.359-.238-.359-.359-.597-.476-.597 0 0-.121.238-.364.476-.117.242-.359.844-.597 1.801-.121.961-.242 1.68-.242 2.043 0 .238.121.477.363.957 1.797 3.723 2.758 6.48 2.758 8.402 0 .598-1.2 1.918-3.481 3.72a40.978 40.978 0 0 1-7.679 5.16c-3.239 1.679-5.879 2.519-8.04 2.519-1.8 0-3.359-.84-4.441-2.52-1.078-1.32-1.559-2.761-1.559-4.32 0-1.68.481-4.32 1.442-7.68.117-.48.238-.84.238-1.082 0-.117 0-.238-.121-.238-.117 0-.359.36-.598 1.2a25.068 25.068 0 0 0-2.043 9.96c0 2.16.364 3.961 1.321 5.64 1.203 2.4 3.242 3.481 5.883 3.481 2.878 0 6.476-1.32 10.558-3.96 3.121-2.04 5.641-4.083 7.32-6.122 1.321-1.558 2.282-3 2.641-4.558.238-.602.359-2.16.359-4.559.719.477 1.68.957 3 1.438 2.52.96 7.321 1.562 14.282 1.562 3.84 0 13.078-1.082 27.718-3 17.52-2.402 26.879-3.602 27.961-3.723.481-.12.84-.12.957-.359.481-.48.84-1.32 1.321-2.281.359-.957.601-1.68.601-2.399 0-2.761-1.558-5.039-4.558-6.718z"/><path fill="color(display-p3 .0941 .2235 .149)" d="M207.84 44.52a6.27 6.27 0 0 0-1.442-1.68c-.718-.602-1.32-.84-1.918-.84-1.441 0-2.039.36-2.039 1.082 0 .836.84 1.316 2.637 1.316 1.442 0 2.402 0 2.762.121zm-15.961 18.242c2.043 0 4.68-.961 7.68-2.762 2.519-1.441 4.921-3.238 7.32-5.398 2.043-1.922 3.242-3.243 3.601-4.082-.242-1.2-1.921-1.801-4.921-1.801-3.719 0-5.52-1.32-5.52-3.84 0-1.918.602-3.598 1.801-5.04 1.199-1.44 2.398-2.038 3.601-2.038 1.438 0 2.879.84 4.079 2.758 1.082 1.562 1.8 3.242 2.281 5.16.121.84.238 1.8.238 2.64 0 3-.84 5.403-2.398 7.2a53.325 53.325 0 0 1-7.082 6.601c-4.321 3.48-8.039 5.281-11.039 5.281-2.641 0-4.559-.96-6-2.882-1.2-1.68-1.801-3.84-1.801-6.239 0-3.238.601-6.601 2.043-10.082.238-.597.476-.957.597-.957s.121.117.121.117c0 .243-.121.602-.242 1.082-.84 3.36-1.316 6-1.316 7.68 0 1.559.359 3 1.199 4.078 1.199 1.68 3.117 2.524 5.758 2.524z"/><path fill="color(display-p3 .0941 .2235 .149)" d="M188.641 15.48c0-1.562-.243-2.761-.602-3.718 0-.602.359-1.922 1.199-3.961.121-.242.242-.36.364-.36.117 0 .238.118.359.477.238.48.719 1.922 1.68 4.32.961 2.524 1.558 4.082 1.679 4.68.121.363.121.723.121.96 0 .724-.601.243-1.921-1.198-.122-.239-.239-.121-.239.238 0 .121.36 4.922.957 14.402.723 9.48 1.082 14.762 1.082 15.961 0 3.719-.601 6.84-1.679 9.598-.243.602-.36.96-.602 1.203-.117.477-.238.477-.359.238 0-.36 0-.84.121-1.8.121-1.2.238-2.641.238-4.32 0-1.56-.48-7.68-1.199-18.598-.719-10.801-1.199-16.922-1.199-18.121zm-7.801 36.122c-.36-.723-.84-1.684-1.559-2.883-.242-.36-.48-.36-.601 0a7.88 7.88 0 0 0-.84 3.601c0 .121 0 .36.121.48 1.32 2.16 1.918 3.481 1.918 4.079-.481 1.203-1.68 1.922-3.359 1.8-1.2.122-2.04-.12-2.641-.48-.957-.597-1.68-2.039-2.16-4.32-.117-.719-.239-5.16-.481-13.2-.238-8.64-.476-14.398-.84-17.28-.476-4.68-1.199-7.919-2.16-9.84-.238-.36-.359-.477-.476-.477 0 0-.121.117-.364.477-.597 1.562-.839 2.761-.839 3.48a53.308 53.308 0 0 1 1.8 9.121c.243 1.922.481 7.32.719 16.078.242 8.16.481 13.082.844 14.64.476 2.763 1.316 4.563 2.637 5.52.961.723 2.281 1.082 3.961 1.082 1.558 0 2.878-.96 3.839-2.761.719-1.2 1.082-2.88 1.082-5.16 0-1.559-.242-2.88-.601-3.957zm-36.481 3c-1.437.597-2.879.957-4.078.957-1.082 0-1.562-.239-1.562-.72 0-.237.121-.6.359-1.077.844-1.203 2.16-2.524 3.844-4.203 1.316-1.32 2.398-2.278 3.238-2.88.719 2.762 1.078 4.442 1.078 5.16-.238.962-1.078 1.923-2.879 2.763zm20.039-29.762c-.117-.602-.718-2.04-1.679-4.559-.84-2.402-1.438-3.84-1.68-4.441-.117-.238-.238-.36-.359-.36 0 0-.121.122-.239.36-.839 2.039-1.32 3.36-1.32 3.84.481.96.84 2.28.84 3.718 0 1.684.238 7.082.961 16.442.598 9.242.957 14.52.957 15.84 0 2.16-.238 3.36-.719 3.718-1.32 1.204-2.762 1.684-4.199 1.684-1.199 0-2.52-.602-3.723-1.922-1.316-1.32-2.16-3-2.636-4.922-.84-3.36-1.442-6.476-2.043-9.238 1.562-1.2 2.64-2.52 3.363-4.082.238-.598.238-.957.238-1.078v-.238c-.121 0-.48.238-.961.718-.719.72-1.801 1.559-3.121 2.399-.238-1.2-.719-2.758-1.437-4.68-.243-.36-.36-.598-.481-.598a.253.253 0 0 0-.238.239c-.844 1.922-1.203 3.36-1.32 4.199.359 1.082.597 1.922.718 2.762-2.761 2.277-4.679 4.078-5.879 5.52-1.8 2.28-2.64 4.8-2.64 7.44 0 1.68.719 2.637 2.277 2.637 2.16 0 4.442-.84 6.844-2.52.957-.718 1.68-2.277 2.156-4.679.363 2.879.961 5.281 1.801 7.2 1.68 3.722 4.082 5.64 7.082 5.64 1.801 0 3.48-1.2 4.801-3.36 1.679-2.519 2.519-6.12 2.519-10.68 0-1.558-.359-6.48-.961-14.64-.601-8.039-.84-12.238-.84-12.36 0-.358 0-.48.122-.237 1.32 1.558 2.039 1.918 2.039 1.199 0-.121-.121-.48-.243-.961z"/><path fill="color(display-p3 .0941 .2235 .149)" d="M130.801 82.441c-3 1.559-5.879 2.278-8.762 2.278-8.519 0-12.719-3.719-12.719-11.399 0-2.879.602-5.879 1.918-9 3.481.598 6.481.961 9.364.961 7.679 0 12.476.238 14.398.719 1.68.48 3 1.441 3.961 2.64.961 1.079 1.32 2.278 1.32 3.598 0 1.442-.84 3.243-2.64 5.16-1.922 2.043-4.082 3.723-6.84 5.043zm9.359-17.523c-.84-1.2-1.801-2.156-3.121-2.758-1.918-.719-5.641-1.2-11.16-1.2-5.758 0-9.957-.12-12.481-.48 2.043-2.398 5.043-4.68 9.243-6.718a53.28 53.28 0 0 1 7.437-2.883c2.402-.598 4.684-1.2 6.961-1.797.359-.121.602-.363.723-.602l1.078-3.12c.121-.239.121-.36.121-.481v-.117c0-.242-.359-.364-1.32-.242-1.2 0-2.52.12-3.961.12-1.321 0-3.961-.12-7.68-.242a241.371 241.371 0 0 0-6.93-.113 11.329 11.329 0 0 0 2.25-4.324c.602-2.043.961-5.281.961-9.723 0-1.558-.242-5.398-.722-11.52-.481-6.116-.598-9.238-.598-9.359 0-.359 0-.48.117-.238 1.32 1.559 2.043 1.918 2.043 1.32 0-.242-.121-.601-.242-1.082-.117-.597-.719-2.16-1.68-4.558-.84-2.403-1.437-3.961-1.679-4.442-.122-.238-.239-.359-.36-.359s-.121.121-.238.36c-.844 2.038-1.32 3.359-1.32 3.84.476.96.839 2.28.839 3.718 0 1.32.239 5.64.719 13.082.481 7.32.719 11.64.719 13.082 0 3.36-.117 5.277-.238 5.52 0 .597-.481 1.078-1.321 1.316-1.8.723-3.961 1.441-6.601 2.164-2.039.598-3.239.957-3.36 1.2-.597 1.437-.961 2.636-1.32 3.718-.117.238-.117.36-.117.48 0 .239.476.36 1.68.36 2.16 0 4.558.12 7.199.242 2.64 0 5.277.117 8.039.117-5.52 2.64-9.84 6.242-12.719 10.801-1.441-.602-2.519-.96-3.121-1.32-1.32-.598-2.641-1.442-3.84-2.762-1.68-1.559-2.762-6.117-3.121-13.438-.117-3.12-.117-6.359-.238-9.601-.121-5.04-.36-8.277-.481-9.961-.48-4.438-1.199-7.559-2.16-9.36-.12-.359-.242-.476-.36-.476-.12 0-.241.117-.359.477-.722 1.8-1.082 3-1.082 3.722.723 1.801 1.32 4.68 1.801 8.399 0 1.082.238 6.84.719 17.16.242 7.68.84 12.48 1.68 14.281.839 1.68 1.921 3.117 3.242 4.078.961.719 2.277 1.442 4.199 2.282.48.12.961.238 1.441.359-1.203 3.36-1.679 6.84-1.679 10.558 0 9.961 4.558 15 13.558 15 5.16 0 9.719-1.917 13.918-5.879 4.203-4.078 6.364-8.519 6.364-13.558 0-1.922-.481-3.602-1.442-5.043zM57.84 60.84c2.398-2.758 4.922-5.16 7.32-7.2 3.719-3 6.961-4.44 9.602-4.44 2.52 0 4.558.96 6.117 3 .36.359.36.6 0 .84-2.64 1.44-6.36 2.878-11.398 4.44-2.52.84-6.36 2.04-11.641 3.36zm-10.2 2.039c-1.921 0-2.878-.48-2.878-1.438 0-.601.597-.96 2.039-.96.96 0 1.918.601 3.117 2.038-.836.243-1.68.36-2.277.36zM87.96 44.16c-1.198-.12-1.92-.601-1.92-1.32 0-.602.6-.961 1.562-.961 1.437 0 2.636.84 3.84 2.52-1.563-.118-2.762-.239-3.481-.239zm5.642-3.48c-1.684-2.16-3.48-3.239-5.403-3.239-1.199 0-2.281.84-3.36 2.399-1.077 1.68-1.679 3.242-1.679 4.8 0 1.2.36 2.16.961 2.88.719.84 1.68 1.199 2.758 1.199H90c3.238 0 4.918.96 4.918 3-1.078.96-2.637 1.922-4.68 2.883-.36.238-1.797.84-4.32 1.918-2.04.96-4.918 1.68-8.758 2.16 2.281-.961 3.84-2.04 4.559-3C83.28 53.879 84 51.96 84 49.918c0-.719-.719-1.68-2.398-3-1.801-1.559-3.602-2.277-5.52-2.277-2.402 0-4.8.96-7.441 3-.723.597-2.762 2.52-6.243 6 .723-4.559 1.082-7.801 1.082-10.082 0-.84-.242-4.078-.718-9.72-.48-5.757-.723-8.64-.723-8.64 0-.36 0-.48.242-.238 1.2 1.559 1.918 1.918 1.918 1.2 0-.122-.117-.481-.238-.962-.121-.597-.723-2.16-1.68-4.68-.84-2.28-1.441-3.84-1.68-4.32a1.504 1.504 0 0 0-.242-.36c-.12 0-.238.122-.359.36-.84 2.04-1.32 3.36-1.32 3.84.601.961.84 2.281.84 3.723 0 .84.242 5.039.718 12.597.48 7.559.844 11.641.844 12.243v5.16c-.121.84-.363 1.558-.602 1.918-1.68 2.28-3.12 4.199-4.199 5.64-.96.36-1.68.598-2.043.72v-.122c-.36.121-.476.242-.597.121-.723-1.559-1.68-2.879-2.641-3.957-1.2-1.203-2.16-1.8-3.238-1.8-1.203 0-2.403.597-3.602 2.038-1.2 1.442-1.8 3.121-1.8 5.04 0 2.519 1.8 3.84 5.519 3.84 1.68 0 3-.24 3.96-.481.243.48.36 1.082.36 1.562 0 .598-1.078 2.04-3.36 4.078a37.753 37.753 0 0 1-7.558 5.88c-3.242 1.921-6 3-8.281 3-2.64 0-4.559-.84-5.762-2.52-.84-1.078-1.199-2.52-1.199-4.078 0-1.68.48-4.32 1.32-7.68.121-.36.243-.723.243-1.082 0 0 0-.117-.122-.117-.12 0-.359.36-.601 1.078a25.123 25.123 0 0 0-2.04 9.96c0 2.52.602 4.56 1.802 6.24 1.441 1.92 3.359 2.878 6 2.878 3 0 6.597-1.559 10.68-4.68C46.081 79.2 48.6 76.801 51 74.04c.96-1.2 1.68-2.64 2.281-4.437.48-1.32.719-2.403.719-3.364l.238-.117v.238l8.403-2.64c6.238 0 11.878-.36 16.918-1.32 3-.598 5.16-1.079 6.359-1.56 4.32-1.921 7.32-3.6 8.64-5.16 1.204-1.199 1.801-3.48 1.801-6.597 0-3.242-.96-6-2.757-8.402z"/><path fill="color(display-p3 .0941 .2235 .149)" d="M38.04 59.398c0 2.883-.72 5.16-2.04 6.602-2.04 2.398-5.04 4.8-9.121 6.96-5.04 2.88-9.719 4.321-14.16 4.321-5.88 0-9.957-2.883-12.117-8.64C.122 67.44 0 66 0 64.32c0-1.2 0-2.403.238-3.602.242-1.68.602-3.239 1.203-4.559.118-.36.239-.601.477-.601.121 0 .121.242 0 .722-.117.84-.36 1.68-.477 2.52-.359 1.437-.48 2.52-.48 3.117 0 2.402.719 4.684 2.277 6.601 2.16 2.641 5.403 4.083 9.48 4.083 3.602 0 7.321-.84 11.403-2.641 3.238-1.32 6.238-3 8.758-5.043 2.402-1.797 3.602-3.117 3.602-3.957 0-.121-.602-1.082-1.563-3-1.078-2.281-1.918-4.441-2.52-6.602-.238-.718-.48-1.199-.84-1.441-.238-.238-.359-.477-.359-.836 0-.121.242-1.32.602-3.48.117-.364.117-.48.238-.48.242 0 .36 0 .48.237.602.723 1.922 1.922 3.84 3.961.36.239.48.598.48.72 0 .241-.12.358-.48.358-.48 0-1.078-.117-1.918-.359.118.242.72 1.563 2.04 4.082.96 2.04 1.558 3.84 1.558 5.277zm415.319 12.543c-.121.72-.359 1.078-.597 1.32-.84.477-2.641 1.798-5.524 3.72-.117.12-.359.238-.476.359 0-.121-.121-.121-.121-.238l.238-.961c0-.243.48-.723 1.441-1.442-1.199-.36-1.679-.96-1.679-1.558 0-.602.238-1.32.839-2.04 1.2-1.44 2.161-2.042 2.879-2.042.719 0 1.082.359 1.082 1.082 0 .48-.242.96-.601 1.558-.121.242-.121.121-.238 0-.243-.48-.481-.597-.84-.597-.364 0-.602.117-1.082.359-.36.238-.481.48-.481.719 0 .238.242.36.723.601.359.238.84.36 1.078.36.238 0 .719-.122 1.32-.48.481-.36.961-.602 1.321-.962.48-.117.718-.238.718-.238.121.121.121.238 0 .48zm-15.121-29.339c-.117-.121-.117-.121 0-.364l1.442-3c.121-.238.242-.238.359-.238.121 0 .84.36 1.922 1.2 1.199.718 1.801 1.198 1.801 1.44 0 .481-.481 1.56-1.563 3.239-.121.242-.238.242-.359.242a32.102 32.102 0 0 0-3.602-2.52zM400.441 15c-.121-.121-.121-.121 0-.36l1.438-3c.121-.242.242-.242.359-.242.121 0 .84.364 1.922 1.204 1.199.718 1.801 1.199 1.801 1.437 0 .48-.481 1.563-1.563 3.242-.117.239-.238.239-.359.239a32.342 32.342 0 0 0-3.598-2.52zM384 53.16c-.121-.12-.121-.12 0-.36l1.441-3c.118-.241.239-.241.36-.241s.84.359 1.918 1.203c1.203.718 1.801 1.199 1.801 1.437 0 .48-.481 1.563-1.559 3.242-.121.239-.242.239-.359.239A32.931 32.931 0 0 0 384 53.16zm-42.359-10.8c-.121-.122-.121-.122 0-.36l1.437-3c.121-.238.242-.238.363-.238.118 0 .84.36 1.918 1.199 1.2.719 1.801 1.2 1.801 1.437 0 .48-.48 1.563-1.558 3.243-.122.238-.243.238-.364.238a32.956 32.956 0 0 0-3.597-2.52zm-52.922-17.641c-.117-.117-.117-.117 0-.36l1.441-3c.121-.238.238-.238.36-.238.121 0 .839.36 1.921 1.2 1.2.718 1.797 1.198 1.797 1.44 0 .477-.476 1.56-1.558 3.239-.121.238-.239.238-.36.238a33.147 33.147 0 0 0-3.601-2.52zm-99.481 46.562c-.117.719-.359 1.078-.597 1.32-.84.481-2.641 1.797-5.52 3.72-.121.12-.359.238-.48.359 0-.121-.121-.121-.121-.239l.242-.96c0-.243.476-.72 1.437-1.442-1.199-.36-1.679-.957-1.679-1.558 0-.602.242-1.32.839-2.04 1.2-1.441 2.161-2.043 2.879-2.043.723 0 1.082.364 1.082 1.083 0 .48-.242.96-.601 1.558-.117.242-.117.121-.239 0-.242-.48-.48-.598-.839-.598-.36 0-.602.118-1.082.36-.36.238-.481.48-.481.718 0 .243.242.36.723.602.359.238.84.36 1.078.36.242 0 .723-.122 1.32-.481.481-.36.961-.602 1.321-.96.48-.122.718-.24.718-.24.121.118.121.24 0 .481zm-16.797-28.679c-.121-.121-.121-.121 0-.364l1.438-3c.121-.238.242-.238.359-.238.121 0 .84.36 1.922 1.2 1.199.718 1.801 1.198 1.801 1.44 0 .481-.481 1.56-1.563 3.239-.117.242-.238.242-.359.242a32.342 32.342 0 0 0-3.598-2.52zM372 33.238c-.121-.117-.121-.117 0-.36l1.441-3c.118-.237.239-.237.36-.237s.84.359 1.918 1.199c1.203.719 1.801 1.2 1.801 1.441 0 .48-.481 1.559-1.559 3.239-.121.242-.242.242-.359.242A33.544 33.544 0 0 0 372 33.238zm-7.922 5.641c-.117-.117-.117-.117 0-.36l1.442-3c.121-.238.242-.238.359-.238.121 0 .84.36 1.922 1.2 1.199.718 1.801 1.199 1.801 1.437 0 .48-.481 1.563-1.563 3.242-.117.238-.238.238-.359.238a33.269 33.269 0 0 0-3.602-2.52zM84.602 30.48c-.121-.12-.121-.12 0-.359l1.437-3c.121-.242.242-.242.36-.242.12 0 .84.36 1.921 1.203 1.2.719 1.801 1.2 1.801 1.438 0 .48-.48 1.562-1.562 3.242-.118.238-.239.238-.36.238a32.73 32.73 0 0 0-3.597-2.52zm-16.684 6.48c-.117-.12-.117-.12 0-.358l1.441-3c.122-.243.243-.243.36-.243.12 0 .84.36 1.922 1.2 1.199.722 1.8 1.203 1.8 1.441 0 .48-.48 1.559-1.562 3.238-.117.242-.238.242-.36.242a32.39 32.39 0 0 0-3.601-2.52z"/><path fill="color(display-p3 .0941 .2235 .149)" d="M18.238 54.602c-.117-.121-.117-.121 0-.364l1.442-3c.12-.238.238-.238.36-.238.12 0 .839.36 1.92 1.2 1.2.718 1.802 1.198 1.802 1.44 0 .481-.48 1.56-1.563 3.239-.117.242-.238.242-.36.242a32.38 32.38 0 0 0-3.6-2.52zm416.403-31.204c.839 0 1.679.48 2.281 1.442.719 1.078 1.199 2.398 1.558 4.078v.363c.122-.12.122-.242.122-.363.238-.957.597-2.52 1.078-4.559.601-1.32 1.199-2.039 1.922-2.039.359 0 .718.239 1.078.72.359.358.48.722.48.96s0 .48-.121.84c-.117.48-.359.719-.48.719-.118 0-.239-.239-.598-.598-.242-.36-.481-.48-.723-.48-.718 0-1.199 1.437-1.797 4.437-.242 1.32-.48 2.281-.722 2.762-.239.36-.36.601-.598.601-.121 0-.121-.242-.121-.601 0-.48-.359-1.442-.961-3-.48-1.442-.961-2.16-1.199-2.16-.238 0-.238 0-.36.12 0 .122-.121.239-.359.239-.359 0-.601-.238-1.082-.598-.48-.363-.598-.722-.598-.96 0-.122.118-.481.481-1.083.359-.597.598-.84.719-.84zM424.559 9.48c5.882-2.16 12.121-4.44 18.48-6.84.242 0 .359-.12.481 0 0 0 0 .122-.122.36-.238.719-.476 1.082-.597 1.2-5.403 2.038-11.762 4.44-18.961 7.44a7.616 7.616 0 0 1 .719-2.16zm-31.2-1.441c5.879-2.16 12.121-4.438 18.481-6.84.238 0 .359-.117.48 0 0 0 0 .121-.121.36-.238.722-.48 1.081-.597 1.203-5.403 2.039-11.762 4.437-18.961 7.437a7.727 7.727 0 0 1 .718-2.16zm3.602 9.121c0 .48-.481 1.32-1.563 2.758-1.078 1.684-2.16 2.762-3.238 3.602-.719.48-2.879 1.199-6.719 2.16a9.467 9.467 0 0 0-.961.238c0-.117.239-.36.719-.598.481-.36 1.801-1.199 3.961-2.402 2.16-1.078 3.36-1.797 3.719-2.156.121 0 .121-.121.121-.121 0-.48-1.922-.723-5.641-.723h-2.16c-.719.121-.961 0-.961-.117 0-.121 0-.242.242-.602l1.321-2.16c.359-.719 1.078-1.078 2.16-1.32h2.519c4.321 0 6.481.48 6.481 1.441zm-23.281-1.8c.84 0 1.679.48 2.281 1.44.719 1.079 1.199 2.4 1.559 4.079v.36c.121-.118.121-.239.121-.36.238-.961.597-2.52 1.078-4.559.601-1.32 1.203-2.039 1.922-2.039.359 0 .718.239 1.078.719.359.36.48.719.48.96 0 .24 0 .481-.121.84-.117.481-.359.72-.476.72-.122 0-.243-.239-.602-.602-.238-.36-.48-.477-.719-.477-.722 0-1.203 1.438-1.801 4.438-.242 1.32-.48 2.281-.718 2.762-.242.359-.364.597-.602.597-.121 0-.121-.238-.121-.597 0-.48-.359-1.442-.961-3-.476-1.442-.957-2.16-1.199-2.16-.238 0-.238 0-.359.12 0 .118-.122.239-.36.239-.359 0-.601-.238-1.082-.602-.476-.36-.598-.718-.598-.957 0-.12.122-.48.481-1.082.359-.597.598-.84.719-.84zm49.558 7.32c0-.121 0-.239.121-.239.121.118.121.118 0 .239-.359 2.28-1.078 3.48-2.039 3.48-.961 0-1.441-.84-1.441-2.64 0-2.04.601-4.2 1.801-6.48.242-.599.48-.84.48-.84 0 .12-.121.359-.238.96-.844 2.399-1.203 3.961-1.203 4.922 0 1.316.359 2.04 1.082 2.04.359 0 .84-.481 1.437-1.442zm-52.679-4.2c0-.12 0-.242.121-.242.121.121.121.121 0 .242-.36 2.282-1.078 3.48-2.039 3.48-.961 0-1.442-.839-1.442-2.64 0-2.039.602-4.199 1.801-6.48.238-.602.48-.84.48-.84 0 .121-.121.36-.242.96-.84 2.4-1.199 3.958-1.199 4.919 0 1.32.359 2.039 1.082 2.039.359 0 .84-.477 1.438-1.438zm-34.797-6c0 .84-.364 1.68-1.082 2.758A7.923 7.923 0 0 1 332.16 18c-.48.238-.719.48-.719.48v-.12s.118-.239.481-.598c1.68-2.043 2.637-3.242 2.637-3.961 0-.602-.36-.84-.84-.84-.36 0-.598 0-.84.238a1.518 1.518 0 0 0-.359.242l-.122-.12s0-.239.122-.481c.242-1.32.839-1.922 1.921-1.922.84 0 1.321.48 1.321 1.563zm-.961 10.2c5.879-2.16 12.121-4.442 18.48-6.84.239 0 .36-.121.481 0 0 0 0 .121-.121.36-.243.718-.481 1.081-.602 1.198-5.398 2.044-11.758 4.442-18.961 7.442a7.669 7.669 0 0 1 .723-2.16zm6.121 3.601c.84 0 1.68.48 2.277 1.438.723 1.082 1.199 2.402 1.563 4.082v.36c.117-.122.117-.243.117-.36.242-.961.601-2.52 1.082-4.563.598-1.32 1.199-2.039 1.918-2.039.359 0 .723.242 1.082.719.359.363.48.723.48.96 0 .243 0 .481-.121.84-.121.481-.359.723-.48.723s-.238-.242-.602-.601c-.238-.36-.476-.48-.718-.48-.719 0-1.2 1.44-1.801 4.44-.239 1.321-.481 2.282-.719 2.759-.238.359-.359.601-.602.601-.117 0-.117-.242-.117-.601 0-.477-.359-1.438-.961-3-.48-1.438-.961-2.16-1.199-2.16-.242 0-.242 0-.359.12 0 .122-.121.243-.364.243-.359 0-.597-.242-1.078-.602-.48-.36-.601-.719-.601-.96 0-.118.121-.481.48-1.079.36-.601.602-.84.723-.84zM370.68 74.52c0-.122 0-.239.121-.239.121.117.121.117 0 .238-.36 2.282-1.082 3.481-2.039 3.481-.961 0-1.442-.84-1.442-2.64 0-2.04.602-4.2 1.801-6.481.238-.598.481-.84.481-.84 0 .121-.122.36-.243.961-.839 2.398-1.199 3.96-1.199 4.918 0 1.32.36 2.043 1.078 2.043.364 0 .84-.48 1.442-1.442zm59.879-5.16c0-.122 0-.239.121-.239.121.117.121.117 0 .238-.36 2.282-1.078 3.48-2.039 3.48-.961 0-1.442-.839-1.442-2.64 0-2.039.602-4.199 1.801-6.48.238-.598.48-.84.48-.84 0 .121-.121.36-.242.96-.84 2.4-1.199 3.962-1.199 4.923 0 1.32.359 2.039 1.082 2.039.359 0 .84-.48 1.438-1.442zm-143.52-48.122c0 .602-.238 1.203-.48 1.922-.36.84-.84 1.32-1.438 1.32-.84 0-1.562-.718-1.922-1.921-.359 1.562-1.199 2.402-2.398 2.402-.36 0-.723-.242-1.082-.723-.36-.476-.481-1.078-.481-1.918v-1.922c0-.117-.117-.238-.359-.359-.238 0-.238-.121-.238-.48 0-.36.121-.84.48-1.2.359-.359.598-.48.719-.48.238 0 .359.36.359 1.203 0 .36-.121.719-.121 1.078v.719c0 .48 0 .84.242 1.32.239.48.481.719.84.719.36 0 .84-.238 1.199-.598.36-.36.602-.84.602-1.32 0-.238-.121-.84-.359-1.441-.243-.72-.243-1.2-.243-1.32 0-.239 0-.477.243-.72.117-.359.238-.48.238-.601.238.121.359.48.601 1.441.239.961.36 1.68.36 2.04 0 1.32.48 2.042 1.437 2.042.481 0 .84-.242.84-.722-.84-1.438-1.316-2.637-1.316-3.48 0-.477.238-.84.476-1.2.121-.238.242-.36.242-.36.122 0 .122.122.239.36 0 .48.121.84.242 1.2 0 0 .238.48.598 1.562.242.597.48 1.078.48 1.437zm.481 52.68c5.878-2.156 12.121-4.437 18.48-6.836.238 0 .359-.121.48 0 0 0 0 .117-.121.36-.238.718-.48 1.078-.597 1.199-5.403 2.039-11.762 4.441-18.961 7.441a7.68 7.68 0 0 1 .719-2.164zm12.839-56.52c.84 0 1.68.48 2.282 1.442.718 1.078 1.199 2.398 1.558 4.078v.363c.121-.12.121-.242.121-.363.239-.957.602-2.52 1.078-4.559.602-1.32 1.204-2.039 1.922-2.039.36 0 .719.239 1.078.72.364.358.481.722.481.96s0 .48-.117.84c-.121.48-.364.719-.481.719-.121 0-.242-.239-.601-.598-.239-.36-.481-.48-.719-.48-.723 0-1.199 1.437-1.801 4.437-.238 1.32-.48 2.281-.719 2.762-.242.36-.363.601-.601.601-.121 0-.121-.242-.121-.601 0-.48-.36-1.442-.957-3-.481-1.442-.961-2.16-1.203-2.16-.239 0-.239 0-.36.12 0 .122-.121.239-.359.239-.36 0-.602-.238-1.078-.598-.481-.363-.602-.722-.602-.96 0-.122.121-.481.481-1.083.359-.597.597-.84.718-.84zm5.762 15.481c0-.117 0-.238.117-.238.121.12.121.12 0 .238-.359 2.281-1.078 3.48-2.039 3.48-.961 0-1.437-.84-1.437-2.64 0-2.04.597-4.2 1.797-6.48.242-.598.48-.84.48-.84 0 .12-.117.363-.238.96-.84 2.403-1.199 3.961-1.199 4.922 0 1.32.359 2.04 1.078 2.04.359 0 .84-.481 1.441-1.442zm-94.32 1.921c5.879-2.16 12.121-4.44 18.48-6.839.239 0 .36-.121.481 0 0 0 0 .121-.121.36-.243.718-.481 1.077-.602 1.199-5.398 2.039-11.758 4.441-18.961 7.441a7.628 7.628 0 0 1 .723-2.16zm36.719-18.6c0 .48-.481 1.32-1.559 2.76-1.082 1.68-2.16 2.759-3.242 3.599-.719.48-2.879 1.203-6.719 2.16a8.648 8.648 0 0 0-.961.242c0-.121.242-.36.723-.602.476-.359 1.797-1.199 3.957-2.398 2.16-1.082 3.359-1.8 3.722-2.16.118 0 .118-.121.118-.121 0-.48-1.918-.72-5.637-.72h-2.16c-.723.122-.961 0-.961-.12 0-.121 0-.238.238-.602l1.32-2.156c.36-.723 1.082-1.082 2.161-1.32h2.519c4.32 0 6.481.476 6.481 1.437zm18.601 5.519c.957 0 1.32.363 1.078 1.082-.238.96-.48 1.437-.597 1.437-.122 0-.243-.117-.364-.36-.117-.237-.476-.237-.718-.237-.36 0-1.079.359-2.161 1.078-1.199.722-2.039 1.441-2.64 2.16-.117.242-.239.36-.239.48 0 .243.598.36 1.801.36.84 0 1.797-.117 3-.36 1.199-.12 1.918-.238 2.16-.238 1.559 0 2.637.48 3 1.438.118.242.239.48.239.84 0 .48-.239 1.081-.481 1.683-.238.598-.48.957-.597.957-3.84 1.2-6.723 1.8-8.641 1.8a3.943 3.943 0 0 1-2.641-.96c-.601-.48-.961-.961-1.082-1.559.602.239 1.801.48 3.481.48.722 0 2.281-.241 4.922-.718 2.281-.48 3.718-.723 4.199-.96-.238-.602-1.199-.962-3-.962-.481 0-1.199 0-2.399.238-1.203.243-2.043.364-2.519.364-1.801 0-2.641-.364-2.641-1.203 0-.36.117-.84.36-1.438.961-1.68 2.039-3 3.48-4.082 1.199-.957 2.16-1.32 3-1.32zm8.52-10.079c.839 0 1.32.36 1.32 1.2 0 .48-.121.96-.359 1.441-.243.36-.602.84-1.204 1.68-.957.957-1.558 1.68-1.918 2.16-.48.719-.718 1.078-.839 1.078v-.117s.121-.242.238-.723c.359-.84.84-1.68 1.68-2.64.48-.48.961-.957 1.32-1.438-.117-.48-.359-.601-.84-.601-.238 0-.598 0-.961.238-3.957 2.043-7.797 3.121-11.519 3.121-2.039 0-3.84-.48-5.52-1.32.242.722.121 1.68-.238 2.761-.121.36-.242.602-.36.602v-.723c0-.96-.121-1.8-.48-2.52 0-.12-.481-.839-1.441-2.28.121-.957.359-1.438.718-1.438 0 0 .242.238.723.48.48.481 1.078.84 1.559 1.079 1.679.84 3.601 1.32 5.519 1.32 2.16 0 4.082-.36 6.121-.96 1.078-.24 2.399-.84 4.078-1.56 1.203-.601 2.043-.84 2.403-.84zm-64.563 5.758c.844 0 1.684.48 2.281 1.442.719 1.078 1.2 2.398 1.563 4.078v.363c.117-.12.117-.242.117-.363.242-.957.602-2.52 1.082-4.559.598-1.32 1.199-2.039 1.918-2.039.359 0 .723.239 1.082.72.359.358.481.722.481.96s0 .48-.122.84c-.121.48-.359.719-.48.719s-.238-.239-.602-.598c-.238-.36-.476-.48-.718-.48-.719 0-1.2 1.437-1.801 4.437-.238 1.32-.481 2.281-.719 2.762-.238.36-.359.601-.601.601-.118 0-.118-.242-.118-.601 0-.48-.363-1.442-.961-3-.48-1.442-.96-2.16-1.199-2.16-.242 0-.242 0-.359.12 0 .122-.121.239-.363.239-.36 0-.598-.238-1.079-.598-.48-.363-.601-.722-.601-.96 0-.122.121-.481.48-1.083.36-.597.602-.84.719-.84zm13.563 50.883c0-.12 0-.242.121-.242.117.121.117.121 0 .242-.364 2.278-1.082 3.48-2.043 3.48-.957 0-1.438-.843-1.438-2.64 0-2.039.598-4.203 1.797-6.48.242-.602.481-.84.481-.84 0 .117-.118.36-.239.96-.84 2.4-1.199 3.958-1.199 4.919 0 1.32.359 2.039 1.078 2.039.36 0 .84-.48 1.442-1.438zm37.558-6.241c0 .839-.359 1.679-1.078 2.76a7.933 7.933 0 0 1-2.519 2.759c-.481.242-.723.48-.723.48v-.121s.121-.238.48-.598c1.68-2.039 2.641-3.238 2.641-3.96 0-.598-.359-.84-.84-.84-.359 0-.601 0-.84.242-.242.117-.359.238-.359.238l-.121-.121s0-.238.121-.48c.238-1.317.84-1.919 1.918-1.919.84 0 1.32.48 1.32 1.56zm-91.558-50.278c5.879-2.16 12.121-4.442 18.48-6.844.238 0 .359-.117.481 0 0 0 0 .12-.122.363-.242.719-.48 1.078-.601 1.2-5.399 2.038-11.758 4.437-18.957 7.437a7.509 7.509 0 0 1 .719-2.156zm30.718 19.679c0-.12 0-.242.121-.242.122.121.122.121 0 .242-.359 2.278-1.082 3.477-2.039 3.477-.961 0-1.441-.836-1.441-2.637 0-2.043.602-4.199 1.801-6.48.238-.602.48-.84.48-.84 0 .121-.121.36-.242.957-.84 2.402-1.199 3.96-1.199 4.922 0 1.32.359 2.039 1.082 2.039.359 0 .84-.48 1.437-1.438zM175.68 23.52c.84 0 1.679.48 2.281 1.44.719 1.08 1.199 2.4 1.559 4.08v.358c.121-.117.121-.238.121-.359.238-.957.597-2.52 1.078-4.559.601-1.32 1.203-2.039 1.922-2.039.359 0 .718.239 1.078.72.359.358.48.718.48.96 0 .238 0 .48-.121.84-.117.48-.359.719-.476.719-.122 0-.243-.239-.602-.598-.238-.363-.48-.48-.719-.48-.722 0-1.203 1.437-1.801 4.437-.242 1.32-.48 2.281-.718 2.762-.242.36-.364.597-.602.597-.121 0-.121-.238-.121-.597 0-.48-.359-1.442-.961-3-.476-1.442-.957-2.16-1.199-2.16-.238 0-.238 0-.359.12 0 .118-.122.239-.36.239-.359 0-.601-.238-1.082-.602-.476-.359-.598-.718-.598-.957 0-.12.122-.48.481-1.082.359-.597.598-.84.719-.84zM177.121 72c0-.121 0-.238.117-.238.121.117.121.117 0 .238-.359 2.281-1.078 3.48-2.039 3.48-.961 0-1.437-.84-1.437-2.64 0-2.04.597-4.2 1.797-6.48.242-.598.48-.84.48-.84 0 .12-.117.359-.238.96-.84 2.399-1.199 3.961-1.199 4.918 0 1.32.359 2.043 1.078 2.043.359 0 .84-.48 1.441-1.441zm-31.68-3.84c.84 0 1.68.48 2.278 1.442.722 1.078 1.203 2.398 1.562 4.078v.36c.117-.122.117-.24.117-.36.243-.961.602-2.52 1.082-4.559.598-1.32 1.2-2.039 1.918-2.039.364 0 .723.238 1.082.719.36.36.481.718.481.96 0 .239 0 .477-.121.84-.121.481-.36.72-.481.72s-.238-.239-.597-.602c-.242-.36-.481-.48-.723-.48-.719 0-1.199 1.44-1.801 4.44-.238 1.321-.476 2.282-.718 2.762-.239.36-.36.598-.598.598-.121 0-.121-.238-.121-.598 0-.48-.36-1.441-.961-3-.481-1.441-.961-2.16-1.199-2.16-.243 0-.243 0-.36.117 0 .121-.121.243-.359.243-.363 0-.602-.243-1.082-.602-.481-.36-.602-.719-.602-.957 0-.121.121-.48.481-1.082.359-.602.601-.84.722-.84zm85.2-4.32c.839 0 1.679.48 2.281 1.441.719 1.078 1.199 2.399 1.558 4.078v.36c.122-.117.122-.238.122-.36.238-.96.597-2.52 1.078-4.558.601-1.32 1.199-2.04 1.922-2.04.359 0 .718.239 1.078.72.359.359.48.718.48.96 0 .239 0 .477-.121.84-.117.48-.359.719-.48.719-.118 0-.239-.238-.598-.602-.242-.359-.481-.48-.723-.48-.718 0-1.199 1.441-1.797 4.441-.242 1.32-.48 2.282-.722 2.762-.239.36-.36.598-.598.598-.121 0-.121-.238-.121-.598 0-.48-.359-1.441-.961-3-.48-1.441-.961-2.16-1.199-2.16-.238 0-.238 0-.36.121 0 .117-.121.238-.359.238-.359 0-.601-.238-1.082-.601-.48-.36-.598-.719-.598-.957 0-.121.118-.48.481-1.082.359-.598.598-.84.719-.84zm-87.36-45.602c5.879-2.156 12.117-4.437 18.481-6.84.238 0 .359-.117.476 0 0 0 0 .121-.117.364-.242.718-.48 1.078-.601 1.199-5.399 2.039-11.758 4.437-18.961 7.437a7.74 7.74 0 0 1 .722-2.16zm6.117 2.282c.84 0 1.68.48 2.282 1.44.718 1.08 1.199 2.4 1.558 4.08v.358c.121-.117.121-.238.121-.359.243-.957.602-2.52 1.082-4.559.598-1.32 1.2-2.039 1.918-2.039.36 0 .719.239 1.082.72.36.358.481.718.481.96 0 .238 0 .48-.121.84-.121.48-.36.719-.481.719s-.242-.239-.601-.598c-.239-.363-.481-.48-.719-.48-.719 0-1.199 1.437-1.801 4.437-.238 1.32-.48 2.281-.719 2.762-.242.36-.359.597-.601.597-.117 0-.117-.238-.117-.597 0-.48-.364-1.442-.961-3-.481-1.442-.961-2.16-1.199-2.16-.243 0-.243 0-.364.12 0 .118-.117.239-.359.239-.359 0-.598-.238-1.078-.602-.481-.359-.602-.718-.602-.957 0-.12.121-.48.481-1.082.359-.597.601-.84.718-.84zm-4.796 8.878c.117-.48.238-.957.117-1.316-.117-.602-.36-.844-.719-.844-.121 0-.359.121-.719.242-.242.239-.359.36-.359.48 0 .36.476.84 1.68 1.438zm-.84 2.043c-1.442-.722-2.16-1.562-2.16-2.402 0-.957.359-1.918 1.32-2.758.957-.84 1.68-1.082 2.277-.84.481.118.84.72.84 1.559 0 .84-.238 1.8-.598 2.879.719.36 1.2.723 1.438 1.082 0 .36-.359.957-.957 1.918-.242-.238-.723-.598-1.32-1.078-.84 1.199-1.922 2.16-3.122 3.117-1.441 1.082-2.761 1.8-3.96 2.402-.239.121-1.559.598-4.079 1.559-.363.121-.722.242-.839.242V39c0-.121.117-.238.597-.602 1.801-1.078 3.723-2.16 5.52-3.238 2.281-1.32 3.961-2.64 5.043-3.719zM137.641 21c0-.121 0-.238.121-.238.117.117.117.117 0 .238-.364 2.281-1.082 3.48-2.043 3.48-.957 0-1.438-.84-1.438-2.64 0-2.04.598-4.2 1.797-6.48.242-.598.481-.84.481-.84 0 .12-.118.359-.239.96-.84 2.399-1.199 3.961-1.199 4.918 0 1.32.359 2.043 1.078 2.043.36 0 .84-.48 1.442-1.441zm-31.563 7.68c.844 0 1.684.48 2.281 1.441.719 1.078 1.2 2.399 1.563 4.078v.36c.117-.118.117-.239.117-.36.242-.96.602-2.52 1.082-4.558.598-1.32 1.199-2.04 1.918-2.04.359 0 .723.239 1.082.72.359.359.481.718.481.96 0 .239 0 .48-.122.84-.121.48-.359.719-.48.719s-.238-.238-.602-.602c-.238-.36-.476-.476-.718-.476-.719 0-1.2 1.437-1.801 4.437-.238 1.32-.481 2.282-.719 2.762-.238.36-.359.598-.601.598-.118 0-.118-.239-.118-.598 0-.48-.363-1.441-.961-3-.48-1.441-.96-2.16-1.199-2.16-.242 0-.242 0-.359.117 0 .121-.121.242-.363.242-.36 0-.598-.242-1.079-.601-.48-.36-.601-.72-.601-.957 0-.122.121-.48.48-1.082.36-.602.602-.84.719-.84zM92.52 10.082C98.397 7.918 104.64 5.64 111 3.238c.238 0 .359-.117.48 0 0 0 0 .121-.121.363-.238.72-.48 1.079-.597 1.2C105.359 6.84 99 9.238 91.801 12.238c.117-.719.36-1.437.718-2.156zM80.398 66.48c5.883-2.16 12.121-4.44 18.48-6.84.243 0 .36-.12.481 0 0 0 0 .122-.12.36-.239.719-.477 1.082-.598 1.2-5.403 2.038-11.762 4.44-18.961 7.44a7.64 7.64 0 0 1 .718-2.16zm86.641 0c0 .84-.359 1.68-1.078 2.758a7.913 7.913 0 0 1-2.52 2.762c-.48.238-.722.48-.722.48v-.12s.121-.239.48-.598c1.68-2.043 2.641-3.243 2.641-3.961 0-.602-.36-.84-.84-.84-.359 0-.602 0-.84.238a1.518 1.518 0 0 0-.359.242l-.121-.12s0-.239.121-.481c.238-1.32.84-1.922 1.918-1.922.84 0 1.32.48 1.32 1.563zm-91.32-44.039c.12-.48.242-.96.12-1.32-.12-.601-.358-.84-.718-.84-.121 0-.36.117-.723.239-.238.242-.359.359-.359.48 0 .36.48.84 1.68 1.441zm-.84 2.04c-1.438-.72-2.16-1.563-2.16-2.399 0-.96.363-1.922 1.32-2.762.961-.84 1.68-1.082 2.281-.84.48.122.84.72.84 1.56 0 .839-.242 1.8-.601 2.878.722.363 1.203.723 1.441 1.082 0 .36-.36.96-.96 1.918-.24-.238-.72-.598-1.321-1.078-.84 1.2-1.918 2.16-3.117 3.12-1.442 1.08-2.762 1.802-3.961 2.4-.243.12-1.559.6-4.082 1.558-.36.121-.72.242-.84.242v-.12c0-.122.12-.24.601-.599 1.801-1.082 3.72-2.16 5.52-3.242 2.281-1.32 3.96-2.64 5.039-3.719zM78.36 10.68c.84 0 1.68.48 2.28 1.441.72 1.078 1.2 2.399 1.56 4.078v.36c.12-.118.12-.239.12-.36.239-.96.598-2.52 1.078-4.558C84 10.32 84.602 9.6 85.32 9.6c.36 0 .72.239 1.078.72.364.359.48.718.48.96 0 .239 0 .48-.116.84-.121.48-.364.719-.48.719-.122 0-.243-.238-.602-.602-.239-.36-.48-.476-.72-.476-.722 0-1.198 1.437-1.8 4.437-.242 1.32-.48 2.281-.719 2.762-.242.36-.359.598-.601.598-.121 0-.121-.239-.121-.598 0-.48-.36-1.441-.957-3-.48-1.441-.961-2.16-1.203-2.16-.239 0-.239 0-.36.117 0 .121-.117.242-.36.242-.358 0-.6-.242-1.077-.601-.48-.36-.602-.72-.602-.957 0-.122.121-.48.48-1.082.36-.602.598-.84.72-.84zm-33 24.718c.84 0 1.68.48 2.28 1.442.72 1.078 1.2 2.398 1.56 4.078v.363c.12-.12.12-.242.12-.363.239-.957.598-2.52 1.078-4.559.602-1.32 1.204-2.039 1.922-2.039.36 0 .72.239 1.078.72.364.358.48.722.48.96s0 .48-.116.84c-.121.48-.364.719-.48.719-.122 0-.243-.239-.602-.598-.239-.36-.48-.48-.72-.48-.722 0-1.198 1.437-1.8 4.437-.242 1.32-.48 2.281-.719 2.762-.242.36-.359.601-.601.601-.121 0-.121-.242-.121-.601 0-.48-.36-1.442-.957-3-.48-1.442-.961-2.16-1.203-2.16-.239 0-.239 0-.36.12 0 .122-.117.239-.36.239-.358 0-.6-.238-1.077-.598-.48-.363-.602-.722-.602-.96 0-.122.121-.481.48-1.083.36-.597.598-.84.72-.84zm14.28 37.321c0-.117 0-.238.122-.238.117.12.117.12 0 .238-.364 2.281-1.082 3.48-2.043 3.48-.957 0-1.438-.84-1.438-2.64 0-2.04.598-4.2 1.801-6.477.238-.601.477-.844.477-.844 0 .121-.118.364-.239.961-.84 2.403-1.199 3.961-1.199 4.922 0 1.32.36 2.04 1.078 2.04.36 0 .84-.481 1.442-1.442zm126.962-27.117c0-.121 0-.243.117-.243.121.121.121.121 0 .243-.36 2.277-1.078 3.48-2.039 3.48-.961 0-1.442-.844-1.442-2.64 0-2.044.602-4.204 1.801-6.481.242-.602.481-.84.481-.84 0 .117-.122.36-.239.961-.84 2.398-1.203 3.957-1.203 4.918 0 1.32.363 2.04 1.082 2.04.36 0 .84-.481 1.442-1.438zM64.918 68.52c.844 0 1.684.48 2.281 1.44.719 1.08 1.2 2.4 1.563 4.08v.358c.117-.117.117-.238.117-.359.242-.957.602-2.52 1.082-4.558.598-1.32 1.2-2.04 1.918-2.04.36 0 .723.239 1.082.72.36.358.48.718.48.96 0 .238 0 .48-.12.84-.122.48-.36.719-.481.719s-.238-.239-.602-.598c-.238-.363-.476-.48-.719-.48-.718 0-1.199 1.437-1.8 4.437-.238 1.32-.48 2.281-.719 2.762-.238.36-.36.597-.602.597-.117 0-.117-.238-.117-.597 0-.48-.363-1.442-.96-3-.481-1.442-.962-2.16-1.2-2.16-.242 0-.242 0-.36.12 0 .118-.12.239-.363.239-.359 0-.597-.238-1.078-.602-.48-.359-.601-.718-.601-.957 0-.12.12-.48.48-1.082.36-.597.602-.84.719-.84zM6.238 48.36c5.883-2.16 12.121-4.442 18.48-6.84.243 0 .364-.122.481 0 0 0 0 .12-.117.359-.242.723-.48 1.082-.602 1.203-5.398 2.04-11.761 4.438-18.96 7.438a7.72 7.72 0 0 1 .718-2.16zm34.802-9.598c0 .84-.36 1.68-1.08 2.758a7.948 7.948 0 0 1-2.519 2.761c-.48.239-.722.48-.722.48v-.12s.12-.243.48-.602c1.68-2.039 2.64-3.238 2.64-3.957 0-.602-.358-.844-.839-.844-.36 0-.602 0-.84.242a1.52 1.52 0 0 0-.36.239l-.12-.117s0-.243.12-.48c.24-1.321.84-1.923 1.919-1.923.84 0 1.32.48 1.32 1.563zM40.8 70.32c0 .84-.359 1.68-1.081 2.762a7.863 7.863 0 0 1-2.52 2.758c-.48.242-.718.48-.718.48v-.12s.12-.24.48-.598c1.68-2.043 2.64-3.243 2.64-3.961 0-.602-.363-.84-.84-.84-.363 0-.6 0-.843.238-.238.121-.36.242-.36.242l-.117-.12s0-.243.118-.481c.242-1.32.84-1.918 1.922-1.918.84 0 1.32.476 1.32 1.558zm57.118-1.082c0 .844-.36 1.68-1.078 2.762a7.949 7.949 0 0 1-2.52 2.762c-.48.238-.718.476-.718.476v-.117s.117-.242.48-.602c1.68-2.038 2.637-3.238 2.637-3.96 0-.598-.36-.84-.84-.84-.36 0-.598 0-.84.242-.238.121-.36.238-.36.238l-.12-.117s0-.242.12-.48c.239-1.32.84-1.922 1.923-1.922.84 0 1.316.48 1.316 1.558z"/></svg>