<svg xmlns="http://www.w3.org/2000/svg" width="72" height="59" fill="none"><path d="M 57.283 6.604 L 54.546 3.94 C 54.403 3.803 54.321 3.616 54.318 3.418 C 54.314 3.221 54.39 3.031 54.527 2.889 L 57.112 0.229 C 57.251 0.086 57.44 0.004 57.64 0.002 C 57.839 -0.001 58.03 0.076 58.172 0.216 L 60.909 2.906 C 61.203 3.192 61.207 3.662 60.92 3.955 L 58.338 6.591 C 58.201 6.733 58.012 6.814 57.815 6.817 C 57.617 6.819 57.426 6.744 57.284 6.606 Z M 64.31 6.601 L 61.573 3.936 C 61.28 3.652 61.272 3.186 61.554 2.891 L 64.107 0.232 C 64.244 0.088 64.434 0.006 64.634 0.003 C 64.833 -0.001 65.026 0.076 65.168 0.216 L 67.905 2.908 C 68.197 3.193 68.203 3.66 67.918 3.953 L 65.366 6.586 C 65.228 6.728 65.039 6.809 64.841 6.812 C 64.643 6.815 64.452 6.739 64.31 6.601 Z M 58.856 8.61 L 61.954 8.61 C 68.341 8.61 71.607 11.584 71.607 17.368 C 71.607 23.15 68.341 26.126 61.954 26.126 L 58.856 26.126 C 57.455 26.126 56.203 25.982 55.102 25.696 L 24.492 25.696 C 23.479 28.674 20.895 30.158 16.786 30.158 L 8.198 30.158 C 2.765 30.158 0 27.564 0 22.354 L 0 17.534 L 4.05 17.534 L 4.05 22.354 C 4.05 25.28 5.814 26.661 9.15 26.685 L 15.832 26.685 C 18.968 26.685 20.714 25.464 20.914 22.868 L 20.914 9.04 L 24.964 9.04 L 24.964 13.072 L 24.982 13.072 L 24.982 22.223 L 50.296 22.223 C 49.571 20.923 49.205 19.302 49.205 17.368 C 49.205 11.584 52.471 8.61 58.858 8.61 Z M 59.572 22.674 L 61.24 22.674 C 65.268 22.65 67.387 20.866 67.387 17.368 C 67.387 13.847 65.268 12.062 61.24 12.062 L 59.572 12.062 C 55.544 12.062 53.423 13.847 53.423 17.368 C 53.423 20.866 55.544 22.65 59.572 22.674 Z" fill="rgb(0,0,0)" opacity="0.35"></path><path d="M 12.847 55.047 L 9.726 55.047 C 3.29 55.047 0 52.049 0 46.315 C 0 40.507 3.29 37.533 9.726 37.533 L 12.847 37.533 C 19.283 37.533 22.573 40.507 22.573 46.315 C 22.573 50.098 21.036 52.739 18.153 54.072 L 20.219 57.451 L 15.682 57.451 L 14.121 54.999 C 13.715 55.025 13.282 55.047 12.849 55.047 Z M 10.445 51.597 L 11.934 51.597 L 9.774 48.218 L 14.647 48.218 L 16.015 50.454 L 16.135 50.67 C 17.6 49.859 18.319 48.362 18.319 46.315 C 18.319 42.769 16.183 40.985 12.124 40.985 L 10.443 40.985 C 6.386 40.985 4.248 42.769 4.248 46.313 C 4.248 49.789 6.386 51.573 10.443 51.597 Z M 51.087 38.949 L 51.087 48.325 C 51.087 53.251 47.918 56.035 42.826 56.035 L 33.833 56.035 C 28.646 56.035 25.572 53.251 25.572 48.325 L 25.572 38.949 L 29.776 38.949 L 29.776 48.231 C 29.776 51.229 31.024 52.394 34.915 52.394 L 41.77 52.394 C 45.539 52.394 46.908 51.229 46.908 48.231 L 46.908 38.949 Z M 54.028 39.021 L 54.028 55.678 L 71.605 55.678 L 71.605 52.228 L 58.111 52.228 L 58.111 39.021 L 54.03 39.021 Z" fill="rgb(0,0,0)"></path></svg>