<svg xmlns="http://www.w3.org/2000/svg" fill="#050505" viewBox="0 0 391 341">
  <path d="M30 1.1a8 8 0 00-.4 1.4c0 .3-1.6 3.7-5 10.6l-2.2 5-1 2.7.6 3.7 1 6.8 1.3 7.4A197.8 197.8 0 0127 56.5l.7 6.5 1 12a698.6 698.6 0 012.2 28.3 1639 1639 0 002.7 45 1877.5 1877.5 0 002.9 44l2.2 27.4a470 470 0 004.7 42.8c1 7.1 1 6.3-.2 6.3-14.3 0-27.6-16.9-31.6-40.3l-1-5.4c-1-6-1.6-21.3-1.1-32.3l.2-5.2 1.9.3c4.2.5 7.7-1.8 10.4-6.8 3.5-6.5 5.5-17 4-21-.3-.8-1.1-.7-1.4 0l-1.1 4.2c-3 10.6-13.7 10.8-16 .2-1.5-6.4-.2-12.6 7.5-35 2.8-8.2 3.6-12.3 2.4-13.3-.7-.6-1.7.4-2.6 3.1l-3.8 10c-7 18.6-8.3 23-10 30.4a38.7 38.7 0 000 18l1.2 2.8a20 20 0 002.4 3.5l1.8 1.8-.6 1.4C3 192 2.2 213.8 4 227.4l1 7c.3 3 1 7.6 2.3 13 3.3 16 14.7 35.7 24.4 42.3l1.7 1.2-.5 1.3-2.5 6.8c-9 23.3-10 33.1-4 39.1 7 7 15.2 0 16.2-14 .3-3.7-1-6.3-1.5-3.2-1.3 7-5.6 10.2-10 7.3-4.4-3-4.2-10 .5-24 4.4-13 4-12 4.8-11.8 5.5 1.5 9 1.7 12.3.5a8.4 8.4 0 012.2-.6l2.4 5a34.6 34.6 0 004.8 7.7 72 72 0 0038.7 27.7l7 2a132 132 0 0027.6 4 303.6 303.6 0 0060-3.6l15.7-2.7 8-1.6 7.4-1.6a527.6 527.6 0 0059.6-18l4.2-1.7c5.4-2 13-5.4 15.6-6.7 2.5-1.3 3.5-1.4 3.5-.3a29.8 29.8 0 013.3 5.5c10.6 20.2 23.2 28.3 39.6 25.6 25-4.3 36.6-19.7 36.6-48.6 0-15.2-7.1-36.8-15.2-45.7-2.3-2.5-2.4-2.3-4.3 6.1l-2.8 12.6-1.2 5.7 1.5 3a111 111 0 0111.4 26c1 4 1 4.1-1.7 6.5-12.2 11-30.4 13.3-41.4 5.2-4.3-3-11-11.5-9.2-11.5a64.4 64.4 0 0016.7-15.9c6-8 5.4-30.7-1.5-47.4-9.8-24-23.7-29-35.8-13a63 63 0 00-9.6 21.6c-1.7 9.7-.5 19.4 4.8 37.8 1 3.2 1.6 6 1.5 6.2-.3.7-13.3 6-23.4 9.6a412.1 412.1 0 01-44.3 12.5 269.2 269.2 0 01-15.1 3.3L208 309c-6.4 1.3-12.7 2.3-25.2 4l-6.8 1c-11.3 1.4-37.2 1-50-1a106.8 106.8 0 01-23.4-5.2A58.6 58.6 0 0166 278.5c-2.2-4.4-2.2-3.6 0-8.3a169.8 169.8 0 006.8-18.6 182.2 182.2 0 0116.9-38.5 67.7 67.7 0 0120.8-20.3c8.2-4 8.7-3.7 16 11.7 12.2 25.8 29 38.3 51 38.3 20.8 0 38.4-12.3 55.2-38 5.6-8.7 10.5-10.7 11.5-4.8 1 5.3 4-.7 6.6-13.4 2-8.7.3-18.8-3-18.8-4 0-7.6 4.2-21.3 24a60.3 60.3 0 01-34.4 23.4c-3.7.7-17.6.6-20.6-.2-15-4-21.4-9.3-32.8-27.2l-8-14.4c-4.3-8.4-5.6-10-8.1-11.4-6.7-3.5-23.4 8-33.4 23a166 166 0 00-18.4 38.8l-4.1 11.7-4 11.3a40.2 40.2 0 01-4.2 9.4 229.9 229.9 0 01-5.4-34.8 1754.7 1754.7 0 00-2-26l-.7-10.6c-.8-10.3-2-28.3-2.7-43.3a2819.6 2819.6 0 00-3.2-53A569.5 569.5 0 0039 34l-1.3-7.4a178 178 0 00-6-24.4c-.7-2.6-1-2.7-1.7-1m338.2 1a1901.4 1901.4 0 00-79.5 39.7 525.6 525.6 0 00-10.5 5.4l-8 4.2a359.5 359.5 0 00-8 4.1l-8.5 4.5a358.8 358.8 0 00-21 11 210.2 210.2 0 00-8 4.3 62 62 0 00-7 3.6l-5 2.8c-26 13.7-32 17.7-35 23.8-1.5 3.5-2.1 6.3-1.3 7.2.3.2 1.6-.5 4.3-2.3a169.4 169.4 0 0116.8-9.9c5.3-3 7.2-4 10.4-5.6a50.9 50.9 0 003.2-1.8l4.5-2.4a792.5 792.5 0 0011.6-6.2l5-2.7a35 35 0 002.3-1.3L241 77a336.9 336.9 0 007.3-3.8l5.2-2.7 8-4c7.6-4 14.4-7.7 23.4-12.2l57.8-29.8 11.8-6c9.5-5 11-5.8 11-7a32.1 32.1 0 003.6-9.7l-1 .2M149.6 7.7l-2.4 6.3-2.4 6.6c-6.5 16.2-4.7 28.3 4 27.6 3.9-.3 7.3-6.4 7.4-13.2 0-3.7-.5-4-1.4-.7-2.4 8-10.2 6.2-10.2-2.4 0-2.8 1-6.6 3.8-14.9 2.6-7.9 3.3-10.6 2.4-10.9-.2 0-.7.6-1.2 1.6m103.9 2a1816 1816 0 00-107.1 54c-8.5 4.8-9.7 6-11 11.3-1 3.5-.7 6.3.3 4.7.3-.5 5.4-3.8 9-5.9 3.7-2 8.2-4.5 20.6-11a1047.7 1047.7 0 0134-17.5l31-15.5 24.3-12 .5-1.5c.5-1.6 2.2-7.4 2.2-7.9 0-.4-.4-.3-3.8 1.2m-147 .4c-5 4.3-6.8 11.8-7.8 30.5-.8 13.7-.8 13.7-4.1 4.6C87.4 26 81.6 18 74.8 18c-4 0-5.4 2-5.8 9-.4 5.2-1.2 4.2 6.5 8.6 5 3 5 3 5.6 1 1.3-4.7 5.7 4.3 14.2 28.6 1.8 5.2 4-2.6 5-17.4 1.4-20.5 2.2-25 4.8-27.6 1.6-1.6 4.4-.5 5.8 2.4 3.9 7.5 3.4 7.4 5.2 1.5 1.5-5 1.5-5.2.2-8-2.8-6.3-6.8-8.7-10-6m214.5 40.2l-2.2 6-2.2 5.6c-.8 2-3 9.1-4 13.2-2.5 10.5 3.3 19.3 10 15.2 2.4-1.4 4.9-8 4.9-12.7 0-2.3-.5-3.6-.8-2.2l-.7 2.4c-1.5 5.6-7.7 6-9.5.6-1.2-3.6-.6-7 3.2-18.7 2.6-7.7 3.2-10.3 2.4-10.8-.2 0-.7.5-1.1 1.4m52.8 26c-9.6 3.6-18 19-14.5 27a39 39 0 0010.4 10.3c3.9 3 3.8 2.6 1.6 5.5a253.8 253.8 0 01-48.7 46l-23.5 17-5 3.5-21 15c-.7.6.6 1 2 .5a329 329 0 0032.5-18.7l6.4-4c7.5-4.6 13.8-9.2 24.8-18.2l7.8-6.3a265 265 0 0018.3-18.4 302.1 302.1 0 0010-13.4c2.3-3 1.5-3.3 6.7 1.6 5 4.8 4.9 4.7 5.7 1.2 1.3-5 .2-8.9-3.5-12.8l-2.2-2.3 1.3-3c4-10.5 4.3-24 .4-28.8-2.1-2.5-5.5-3-9.5-1.7m-264 15.5a1169 1169 0 01-7.1 8.8c-5.5 6.7-5.6 6.8-2.6 9.3l15 12.1a56 56 0 006.4 4.8c1.8 0 17-21.4 16-22.6-.6-.7-20.5-16.7-22-17.6l-1-.6-4.7 5.8m268.3-4.5c2.4 1.8 3.9 7.3 3.3 12.2-.3 2.4-2 7.4-2.7 7.7-1 .3-13.2-10-14.4-12.2-2.6-4.8 8.9-11.2 13.8-7.7m-308 5.3A471.1 471.1 0 0057.6 108c-2 2.7-2.6 2 10 12 13.4 11 12.3 10.4 14.2 8l3-4a230 230 0 0011.6-16.3c0-.6-22.4-18.5-23.2-18.5-.3 0-1.8 1.5-3.3 3.4m233.9 16l-7.2 9c-5 6.2-6.1 7.7-6.1 8.3 0 .5 2.2 2.4 13.9 12l7.4 6c1 1 2.2 1.7 2.3 1.7 1 0 16.5-21 16.5-22.4 0-.3-20.6-17-22.2-18-1.2-.7-1.4-.6-4.6 3.4m-39 0l-2.2 2.7a574.3 574.3 0 01-6.7 8.4c-8 9.7-7.7 9-3.5 12.3l5.3 4.4a192 192 0 0015 11.7c1 0 10.5-12.3 15.7-20.2 1.3-1.9 1.4-1.7-4.7-6.6-19-15-17.5-14.2-18.8-12.8m-59.7 14.3a25 25 0 00-4.7 8.1c-1.6 4-2.5 11.7-3.6 29.6-.6 9.7-.8 10-2.7 5-6.6-18.2-10-25-15.3-30.5-3.7-3.8-9-5.4-12-3.5-2.1 1.3-3.3 5.3-3.3 11.4v3.3l2.3 1.4c1.2.8 3.3 2 4.6 2.6l3.9 2.3c2 1.4 2.5 1.3 3-.4.6-2.5 1.2-2.5 2.7-.2 3 5 7.7 15.3 10.7 24.6 3.4 10.1 3.8 10.7 5.3 7.7a76.6 76.6 0 003.3-19.3c0-7 1.9-25 3-27.8 2.6-6.8 6-6.2 10 1.7 2.7 5.3 2.7 5.3 4.6-1 1.7-5.6 1.7-6 0-9.5-3.6-7.8-7.8-9.8-11.8-5.5m161.4 59.4l-2 2.5c-3 3.7-13 16-13.4 16.8-.7 1.4-.4 1.8 3.8 5.3l8 6.7a682.8 682.8 0 0010.4 8.4c.7.5 1.5 0 4-3 4.4-5.3 13.5-18 13.5-18.7a95 95 0 00-7-6l-11.4-9.2c-5-4-5-4-6-2.8m-121.3 45.5c-1.7 3.2-9.6 25.5-10.4 29.3l-.6 2.8c-1.7 7.6-.5 14.5 3 18 6.8 6.6 14 1.1 15.8-11.7.8-6.4-.3-8.8-1.7-3.7-2.2 7.3-8.4 9-11.4 3-2.4-4.8-1.6-10 4.7-28.6 2.3-6.8 2.9-10 1.8-10.2-.3 0-.8.4-1.2 1m71.7 5.5c2.8 1 5.8 3.6 8.3 7.2 4 6 9.7 18 9.7 20.5 0 1.8-23 16.2-24 14.8a63.3 63.3 0 01-1.7-4.6l-2.3-6.4c-1-2.4-3.2-9.7-5.2-16.3l-1.2-4.4 1-2.3c3.3-6.5 10.2-10.3 15.4-8.5m-198.3 5.2a842.3 842.3 0 01-5.7 15.1 59.7 59.7 0 00-5.7 26.4c1.5 11.3 12 14.8 16.6 5.6 3-5.9 4.4-15.9 2.3-15.9-.2 0-.7 1.3-1.1 3-3 10-12.2 8.4-12.6-2-.2-4.8.5-7.6 4.7-20a66 66 0 003.5-12c-.2-2.4-1.1-2.4-2 0m77.7 16.3a611.9 611.9 0 00-13.5 16.8c-1.5 2.3-2.3 1.5 17 17.1 4.6 3.7 5.5 4.3 6 4 .8-.7 6.4-7.8 8.4-10.6 7.2-10 7.7-10.8 7.4-11.6-.2-.4-22-17.9-22.7-18.2-.3 0-1.5 1-2.6 2.5m-46.2 8.8c-11 13.6-10.5 12.6-7.5 15l14.8 12.2 4.5 3.5 2 1.7 1.2-1.2a122 122 0 0015.3-21.4 514 514 0 00-23.2-18.3c-.2 0-3.3 3.8-7.1 8.5"/>
</svg>